# xmcd CD database file
#
# Track frame offsets:
#	150
#	6277
#	36625
#	60557
#	79017
#	98970
#	118927
#	122262
#	150465
#	168775
#	190375
#	200840
#	229267
#
# Disc length: 3231 seconds
#
# Revision: 1
# Processed by: cddbd v1.5.2PL0 Copyright (c) Steve Scherf et al.
# Submitted via: CDex 1.70beta2
#
DISCID=ab0c9d0d
DTITLE=The Kay-Gee's - Find A Friend
DYEAR=1976
DGENRE=Funk
TTITLE0=Find A Friend (Prelude) (R.Bell-O.Nash)
TTITLE1=On The Money (R.Bell-C.& M.Cheek-W.Beckett)
TTITLE2=Keep On Saying (R.Bell-C.& M.Cheek-W.Beckett-Lassiter)
TTITLE3=I Believe In Music (D.Johnson-R.Bell)
TTITLE4=Be Real (R.Bell-C.& M.Cheek-W.Beckett)
TTITLE5=Together (R.Bell-C.& M.Cheek-W.Beckett)
TTITLE6=Acknowledgement (R.Bell)
TTITLE7=Waiting At The Bus Stop (R.Bell-C.& M.Cheek-W.Beckett)
TTITLE8=Inspiration (R.Bell-C.& M.Cheek-W.Beckett)
TTITLE9=Thank You Dear Lord
TTITLE10=Mr. Nothin' (R.Bell-C.& M.Cheek-W.Beckett)
TTITLE11=S.T.P. (Singing, Teaching And Preaching) (R.Bell-C.& M.Cheek-W.Beckett)
TTITLE12=Find A Friend (Conclusion) (R.Bell-O.Nash)
EXTD=YEAR: 1976
EXTT0=
EXTT1=
EXTT2=
EXTT3=
EXTT4=
EXTT5=
EXTT6=
EXTT7=
EXTT8=
EXTT9=
EXTT10=
EXTT11=
EXTT12=
PLAYORDER=
